<?xml version="1.0" standalone="no"?><!DOCTYPE svg PUBLIC "-//W3C//DTD SVG 1.1//EN" "http://www.w3.org/Graphics/SVG/1.1/DTD/svg11.dtd"><svg t="1589173917255" class="icon" viewBox="0 0 1024 1024" version="1.1" xmlns="http://www.w3.org/2000/svg" p-id="4002" xmlns:xlink="http://www.w3.org/1999/xlink" width="200" height="200"><defs><style type="text/css"></style></defs><path d="M795.578 548.649c0 14.913-12.088 27-27.004 27H255.429c-14.916 0-27.007-12.085-27.007-27 0-14.913 12.091-27.01 27.007-27.01h513.145c14.916-0.003 27.004 12.094 27.004 27.01z m-297.08 135.036H255.429c-14.916 0-27.007 12.085-27.007 27.01 0 14.913 12.091 27 27.007 27h243.069c14.916 0 27.007-12.085 27.007-27 0-14.922-12.091-27.01-27.007-27.01z m459.128-324.092v540.148c0 29.829-24.185 54.019-54.016 54.019H120.393c-29.835 0-54.02-24.191-54.02-54.019V359.593c0-29.829 24.185-54.02 54.02-54.02h203.364c-0.685-9.111 2.025-18.488 8.149-25.465L491.54 98.476c11.021-12.547 28.889-12.547 39.916 0 0.168 0.192 0.31 0.4 0.474 0.595l0.524-0.595 159.637 181.632c6.124 6.974 8.835 16.355 8.149 25.465h203.37c29.832-0.002 54.016 24.192 54.016 54.02z m-568.271-54.022h245.292L512 166.019 389.355 305.571z m514.255 81.032c0-14.916-12.094-27.01-27.007-27.01H147.4c-14.916 0-27.004 12.094-27.004 27.01v486.132c0 14.925 12.088 27.007 27.004 27.007h729.204c14.913 0 27.007-12.084 27.007-27.007V386.603z" p-id="4003"></path></svg>