<?xml version="1.0" encoding="UTF-8"?>
<svg width="18px" height="16px" viewBox="0 0 18 16" version="1.1" xmlns="http://www.w3.org/2000/svg" xmlns:xlink="http://www.w3.org/1999/xlink">
    <title></title>
    <g id="页面-1" stroke="none" stroke-width="1" fill="none" fill-rule="evenodd">
        <g id="课程培训详情" transform="translate(-361.000000, -873.000000)" fill="#606266" fill-rule="nonzero">
            <path d="M377.874985,873 L362.125,873 C361.45,873 361,873.457142 361,874.142857 L361,885.571426 C361,886.25714 361.449999,886.714283 362.125,886.714283 L364.375002,886.714283 L364.375002,889 L367.750005,886.714283 L377.875,886.714283 C378.55,886.714283 379,886.257141 379,885.571426 L379,874.142857 C379,873.457143 378.550001,873 377.875,873 L377.874985,873 Z M368.874991,882.142852 L364.375002,882.142852 L364.375002,880.999995 L368.874991,880.999995 L368.874991,882.142852 Z M375.624983,879.857135 L364.374987,879.857135 L364.374987,878.714278 L375.624983,878.714278 L375.624983,879.857135 Z M375.624983,877.571418 L364.374987,877.571418 L364.374987,876.428561 L375.624983,876.428561 L375.624983,877.571418 Z" id="形状"></path>
        </g>
    </g>
</svg>