<?xml version="1.0" encoding="UTF-8"?>
<svg width="14px" height="12px" viewBox="0 0 14 12" version="1.1" xmlns="http://www.w3.org/2000/svg" xmlns:xlink="http://www.w3.org/1999/xlink">
    <title></title>
    <g id="页面-1" stroke="none" stroke-width="1" fill="none" fill-rule="evenodd">
        <g id="专题分享详情2" transform="translate(-1512.000000, -1317.000000)" fill="#4991EE" fill-rule="nonzero">
            <g id="编组-9" transform="translate(1512.000000, 1313.000000)">
                <path d="M12.8571333,4 L0.85714269,4 C0.342857545,4 -1.42108547e-14,4.34285637 -1.42108547e-14,4.85714269 L-1.42108547e-14,13.4285696 C-1.42108547e-14,13.9428547 0.342856373,14.2857123 0.85714269,14.2857123 L2.57143041,14.2857123 L2.57143041,16 L5.142862,14.2857123 L12.857145,14.2857123 C13.3714302,14.2857123 13.7142877,13.9428559 13.7142877,13.4285696 L13.7142877,4.85714269 C13.7142877,4.34285754 13.3714314,4 12.857145,4 L12.8571333,4 Z M5.99999414,10.8571392 L2.57143041,10.8571392 L2.57143041,9.99999648 L5.99999414,9.99999648 L5.99999414,10.8571392 Z M11.1428456,9.14285145 L2.57141869,9.14285145 L2.57141869,8.28570876 L11.1428456,8.28570876 L11.1428456,9.14285145 Z M11.1428456,7.42856373 L2.57141869,7.42856373 L2.57141869,6.57142104 L11.1428456,6.57142104 L11.1428456,7.42856373 Z" id="形状"></path>
            </g>
        </g>
    </g>
</svg>