<?xml version="1.0" encoding="UTF-8"?>
<svg width="18px" height="18px" viewBox="0 0 18 18" version="1.1" xmlns="http://www.w3.org/2000/svg" xmlns:xlink="http://www.w3.org/1999/xlink">
    <title></title>
    <g id="页面-1" stroke="none" stroke-width="1" fill="none" fill-rule="evenodd">
        <g id="课程培训详情" transform="translate(-885.000000, -848.000000)" fill="#606266" fill-rule="nonzero">
            <g id="编组-5" transform="translate(840.000000, 842.000000)">
                <g id="编组-7">
                    <path d="M46.6914937,13.2587185 C46.310274,13.2579487 46.0006456,13.5664205 46.0000014,13.9476401 L46.0000014,22.3085092 C45.9992317,22.6881865 46.3053899,22.9971723 46.6850672,23 C46.7017761,23 46.7159144,22.9910029 46.7326233,22.9910029 L48.666998,22.9910029 L48.666998,13.2600052 L46.7197703,13.2600052 C46.7094879,13.2638611 46.7004908,13.2587185 46.6914937,13.2587185 Z M62.4261224,14.7329577 L62.4261224,14.7329573 C62.4520784,14.3166104 62.3502855,13.9022638 62.1343596,13.5453411 L62.1343596,13.5453412 C61.7856966,12.9767154 61.177392,12.6183805 60.5110272,12.5890789 L60.5110271,12.5890788 C60.4692156,12.5757259 60.4261486,12.5666819 60.3824976,12.5620876 L56.5561629,12.5620876 L56.5561631,12.562087 C56.8244114,11.7891532 56.9612636,10.9767383 56.9610322,10.1585781 L56.9610325,10.1587093 C56.9597802,9.62394299 56.9007518,9.09087813 56.7849755,8.56879295 L56.7734078,8.56879295 C56.5421536,7.49582385 55.4849953,6.81371735 54.4121531,7.04506954 C53.4833962,7.24519057 52.8263514,8.07497952 52.844217,9.02494391 C52.844217,9.05964698 52.8532141,9.09306475 52.8544994,9.12776782 C52.8446026,10.9127909 51.6961881,12.4921661 50.0011359,13.0517853 L50.0011359,22.9923185 L59.0290752,22.9923185 L59.0290752,22.9923185 C59.4141058,22.9944676 59.7914583,22.8846111 60.1151528,22.6761032 L60.1151527,22.6761032 C60.4059018,22.482836 60.6411581,22.2170121 60.7976464,21.9049239 C60.8104994,21.888215 60.8194965,21.8702208 60.8310642,21.8522266 C60.8426319,21.8342324 60.8374907,21.8432295 60.8400613,21.8380883 L60.8400613,21.8380883 C60.8812739,21.7791534 60.912938,21.7140898 60.9338881,21.6452935 L62.4132671,15.0182926 L62.4132671,15.0182925 C62.4270632,14.9519683 62.4309613,14.8839668 62.4248348,14.8165005 L62.4248348,14.7895093 C62.4248348,14.7805122 62.4286907,14.7522356 62.4261201,14.7329561 L62.4261224,14.7329577 Z" id="形状备份"></path>
                </g>
            </g>
        </g>
    </g>
</svg>
