<?xml version="1.0" standalone="no"?><!DOCTYPE svg PUBLIC "-//W3C//DTD SVG 1.1//EN" "http://www.w3.org/Graphics/SVG/1.1/DTD/svg11.dtd"><svg t="1589174408922" class="icon" viewBox="0 0 1024 1024" version="1.1" xmlns="http://www.w3.org/2000/svg" p-id="6601" xmlns:xlink="http://www.w3.org/1999/xlink" width="200" height="200"><defs><style type="text/css"></style></defs><path d="M891.392 504.128L831.296 363.52l60.544-159.744c4.544-12.096 1.664-25.856-7.424-34.944-9.152-9.152-22.592-11.84-34.368-6.912-99.712 41.408-227.392 41.408-326.976 0-114.944-47.872-260.16-47.872-375.232 0C135.872 166.848 128 178.816 128 192v735.424C128 945.408 142.272 960 159.872 960c17.664 0 31.936-14.592 31.936-32.576v-387.84c95.616-33.728 214.016-31.04 307.136 7.616 115.2 47.872 260.16 47.808 375.232 0 7.936-3.328 14.208-9.728 17.408-17.856 3.264-8 3.136-17.152-0.192-25.216z m-368.32-17.152c-57.536-23.936-120.64-36.032-187.648-36.032-50.304 0-98.432 6.848-143.616 20.352V214.528c95.616-33.664 214.016-31.104 307.136 7.616 93.888 38.912 209.152 46.4 309.376 21.632l-41.216 108.8c-3.072 7.936-2.88 16.832 0.512 24.704l51.648 121.088c-93.248 29.76-206.592 25.792-296.192-11.392z" p-id="6602"></path></svg>