<?xml version="1.0" standalone="no"?><!DOCTYPE svg PUBLIC "-//W3C//DTD SVG 1.1//EN" "http://www.w3.org/Graphics/SVG/1.1/DTD/svg11.dtd"><svg t="1589341933265" class="icon" viewBox="0 0 1024 1024" version="1.1" xmlns="http://www.w3.org/2000/svg" p-id="2156" xmlns:xlink="http://www.w3.org/1999/xlink" width="200" height="200"><defs><style type="text/css"></style></defs><path d="M1003.52 54.8864H199.2704a10.24 10.24 0 0 0-10.24 10.24v111.8208a10.24 10.24 0 0 0 10.24 10.24 10.4448 10.4448 0 0 0 10.24-10.24v-102.4H993.28v561.3568h-34.4064a10.24 10.24 0 0 0-10.24 10.24v155.4432l-113.664-104.2432V199.2704a10.24 10.24 0 0 0-10.24-10.24H20.48a10.24 10.24 0 0 0-10.24 10.24v580.8128a10.24 10.24 0 0 0 10.24 10.24h34.4064v168.5504a10.24 10.24 0 0 0 6.3488 9.4208 8.8064 8.8064 0 0 0 3.8912 0 10.4448 10.4448 0 0 0 7.3728-3.072l175.7184-175.7184h576.512a10.24 10.24 0 0 0 10.24-10.24v-54.0672l116.9408 107.1104a9.8304 9.8304 0 0 0 6.9632 2.6624 9.216 9.216 0 0 0 4.096 0 10.4448 10.4448 0 0 0 6.144-9.4208v-169.1648H1003.52a10.24 10.24 0 0 0 10.24-10.24V65.1264a10.24 10.24 0 0 0-10.24-10.24z m-189.0304 714.9568H243.9168a9.6256 9.6256 0 0 0-7.168 3.072l-161.3824 161.1776v-154.0096a10.24 10.24 0 0 0-10.24-10.24H30.72V209.5104h783.7696z" p-id="2157"></path><path d="M221.5936 322.9696h402.2272v20.48H221.5936zM221.5936 457.1136h402.2272v20.48H221.5936zM221.5936 591.0528h402.2272v20.48H221.5936z" p-id="2158"></path></svg>