<?xml version="1.0" encoding="UTF-8"?>
<svg width="19px" height="18px" viewBox="0 0 19 18" version="1.1" xmlns="http://www.w3.org/2000/svg" xmlns:xlink="http://www.w3.org/1999/xlink">
    <title></title>
    <g id="页面-1" stroke="none" stroke-width="1" fill="none" fill-rule="evenodd">
        <g id="课程培训详情" transform="translate(-1015.000000, -850.000000)" fill="#418CEE" fill-rule="nonzero" stroke="#418CEE">
            <g id="编组-5" transform="translate(840.000000, 842.000000)">
                <g id="编组-6" transform="translate(130.000000, 0.000000)">
                    <path d="M58.3779141,9 C56.8957055,9 55.5214724,9.74601227 54.608589,10.9730061 C53.7055215,9.74601227 52.3214724,9 50.8392638,9 C48.1693252,9 46,11.3754601 46,14.2907975 C46,16.0282209 46.7754601,17.2552147 47.403681,18.2368098 C49.2196319,21.0932515 53.793865,24.6368098 53.990184,24.7840491 C54.1766871,24.9312883 54.392638,25 54.608589,25 C54.8245399,25 55.0404908,24.9312883 55.2269939,24.7840491 C55.4233129,24.6368098 59.9877301,21.0834356 61.8134969,18.2368098 C62.4417178,17.2552147 63.2171779,16.0282209 63.2171779,14.2907975 C63.2171779,11.3754601 61.0478528,9 58.3779141,9 Z" id="路径备份"></path>
                </g>
            </g>
        </g>
    </g>
</svg>