<?xml version="1.0" standalone="no"?><!DOCTYPE svg PUBLIC "-//W3C//DTD SVG 1.1//EN" "http://www.w3.org/Graphics/SVG/1.1/DTD/svg11.dtd"><svg t="1589341991984" class="icon" viewBox="0 0 1024 1024" version="1.1" xmlns="http://www.w3.org/2000/svg" p-id="3124" xmlns:xlink="http://www.w3.org/1999/xlink" width="200" height="200"><defs><style type="text/css"></style></defs><path d="M993.162971 813.348571l-4.476342 8.192a302.138514 302.138514 0 0 1-96.811886 102.926629 249.914514 249.914514 0 0 1-292.220343 0 300.617143 300.617143 0 0 1-96.548571-102.8096l-4.622629-8.074971a11.702857 11.702857 0 0 1 0-11.702858l2.750171-4.856685 1.579886-2.925715c2.603886-4.739657 5.383314-9.479314 8.367543-14.1312a298.1888 298.1888 0 0 1 61.176686-68.783542l-52.926172-33.060572a11.117714 11.117714 0 1 1 11.702857-18.870857l59.947886 37.449143c2.925714-1.989486 5.617371-3.949714 8.484572-5.851429a289.323886 289.323886 0 0 1 76.361142-36.512914l-26.068114-80.106057a11.146971 11.146971 0 1 1 21.182172-6.875429l26.506971 81.451886a230.546286 230.546286 0 0 1 96.226743 0l26.506971-81.481143a11.146971 11.146971 0 1 1 21.182172 6.875429l-26.068115 80.106057a289.645714 289.645714 0 0 1 76.361143 36.483657c2.925714 1.930971 5.675886 3.861943 8.484572 5.851429l59.947885-37.419886a11.117714 11.117714 0 0 1 11.702858 18.870857l-52.926172 33.060571a291.108571 291.108571 0 0 1 69.544229 82.651429l4.476343 8.221257a11.702857 11.702857 0 0 1 0.175542 11.322514z m-23.990857-5.851428h-0.292571l-0.994743-1.784686v-0.2048a247.252114 247.252114 0 0 0-436.867657-12.405028 225.601829 225.601829 0 0 0-7.138743 12.112457 1.726171 1.726171 0 0 1 0 0.234057l-1.345829 2.340571 1.345829 2.340572a1.726171 1.726171 0 0 0 0 0.234057 247.925029 247.925029 0 0 0 444.269714 0l1.375086-2.516114z m-223.407543 89.643886a89.322057 89.322057 0 1 1 89.380572-89.322058 89.351314 89.351314 0 0 1-89.380572 89.322058z m0-155.062858a65.770057 65.770057 0 1 0 65.799315 65.770058 65.887086 65.887086 0 0 0-65.799315-65.828572zM848.457143 353.367771l-337.802972-274.724571L108.397714 257.462857 65.887086 687.016229l309.482057 215.595885v92.3648L0.146286 719.725714 47.864686 211.646171 499.887543 0.087771l404.304457 296.491886 1.024 195.437714H848.457143v-138.766628z m-585.142857 0L234.057143 588.946286l141.312 98.742857v66.647771L175.542857 618.378971l40.287086-293.215085L468.114286 206.116571l263.314285 176.683886-21.738057 109.333943h-56.612571l19.836343-79.872-204.8-147.2512z" p-id="3125"></path></svg>