<?xml version="1.0" standalone="no"?><!DOCTYPE svg PUBLIC "-//W3C//DTD SVG 1.1//EN" "http://www.w3.org/Graphics/SVG/1.1/DTD/svg11.dtd"><svg t="1589263680245" class="icon" viewBox="0 0 1024 1024" version="1.1" xmlns="http://www.w3.org/2000/svg" p-id="2308" xmlns:xlink="http://www.w3.org/1999/xlink" width="200" height="200"><defs><style type="text/css"></style></defs><path d="M892.559209 168.944139c-27.62866-40.522035-64.773858-45.126811-90.969921-41.852303-11.256121 1.432597-21.386629 4.40012-29.470571 7.469971-1.125612-23.84251-2.660538-38.884781-2.762866-40.010393l-1.330269-13.20036L263.956031 81.351054l-1.330269 13.20036c-0.102328 1.023284-1.534926 15.553912-2.660538 38.577796-7.367643-2.558209-16.167882-4.809433-25.684421-6.037374-26.196063-3.274508-63.341261 1.330269-90.969921 41.852303-15.758569 23.126212-18.726092 52.494454-8.493255 84.932547 20.056361 63.341261 86.876786 129.240731 160.246228 158.915959 12.893375 29.879884 29.470571 58.838813 45.433796 86.979115 36.940542 64.67153 75.211352 131.594284 75.211352 218.266414l0 113.072849L344.897772 831.111022l0 29.368242 355.079444 0 0-29.368242-83.806935 0L616.170281 718.038173c0-86.774458 38.168482-153.594884 75.211352-218.266414 15.758569-27.526332 31.926451-55.87129 44.615169-85.137204 75.211352-28.651944 144.487659-96.08634 164.953333-160.757869C911.2853 221.438593 908.420106 192.070351 892.559209 168.944139zM162.855601 244.974118c-7.572299-23.84251-5.935045-43.898871 4.707105-59.452783 15.553912-22.819227 35.917258-32.335765 62.215649-29.368242 11.767763 1.330269 22.205256 5.01409 29.163585 8.083941-0.204657 12.484061-0.306985 26.196063 0 40.82902 1.330269 66.513441 8.697911 122.998701 22.102928 168.637154C226.094534 343.823324 178.0002 292.55681 162.855601 244.974118zM586.904367 718.038173l0 113.072849L445.179574 831.111022 445.179574 718.038173c0-75.825322-25.786749-135.994404-56.075947-191.968022 15.860897 3.274508 36.735885 6.856001 61.704007 9.41421 18.316778 1.841911 40.112721 3.274508 64.466873 3.274508 37.554512 0 81.351054-3.274508 128.012791-13.098031C612.793445 581.736784 586.904367 642.008194 586.904367 718.038173zM665.901869 485.138803c-1.125612 1.944239-2.148896 3.78615-3.274508 5.730389C579.639053 512.460478 503.916059 511.232537 454.593784 506.320775c-42.568602-4.297792-73.267113-11.972419-85.137204-15.246927-1.125612-1.944239-2.251224-3.990806-3.376836-5.935045-17.395823-30.391526-33.768362-59.145798-46.252423-89.434996C280.737883 300.947737 287.593884 155.027481 290.766064 110.719296l450.449485 0c3.172179 44.308184 10.02818 190.126112-29.061257 284.984511C699.772559 425.890677 683.297692 454.644949 665.901869 485.138803zM873.01449 244.974118c-15.451584 48.912961-65.89947 101.7144-122.794044 131.082642 13.81433-46.047767 21.488958-103.351654 22.819227-170.990707 0.306985-13.916658 0.204657-27.01469 0-38.987109 6.344359-3.069851 18.316778-8.083941 32.131108-9.823524 26.298391-3.274508 47.582692 6.549016 63.034276 29.265914C878.949535 201.177576 880.586789 221.131608 873.01449 244.974118z" p-id="2309"></path><path d="M306.217648 907.8573l430.597782 0 0 39.191766-430.597782 0 0-39.191766Z" p-id="2310"></path><path d="M608.802638 258.481463c-23.126212 0-48.708304-18.623763-55.87129-40.624363-8.390926-25.684421-21.181973-31.107825-30.493854-31.107825s-22.102928 5.423404-30.493854 31.107825c-7.162986 22.0006-32.745078 40.624363-55.87129 40.624363-27.01469 0-36.121915 10.539822-38.987109 19.340062s-1.739582 22.716898 20.158689 38.577796c18.726092 13.609673 28.447287 43.694214 21.284301 65.694814-8.390926 25.684421-1.125612 37.554512 6.344359 43.080244 3.376836 2.455881 7.981613 4.502448 14.018987 4.502448 7.367643 0 16.884181-2.967523 28.8566-11.665434 18.726092-13.609673 50.345558-13.609673 69.07165 0 21.898271 15.860897 35.405616 12.688718 42.875587 7.265314 7.469971-5.423404 14.735285-17.395823 6.344359-43.080244-7.162986-22.0006 2.660538-52.08514 21.284301-65.694814 21.898271-15.860897 23.023883-29.777556 20.158689-38.577796C644.924553 269.021285 635.817328 258.481463 608.802638 258.481463zM610.337564 292.659139c-29.061257 21.079644-43.080244 64.364545-32.02878 98.54222 0.920955 2.762866 1.432597 4.911762 1.739582 6.753672-1.637254-0.920955-3.479165-2.046567-5.832717-3.78615-29.061257-21.079644-74.597382-21.079644-103.556311 0-2.353553 1.637254-4.297792 2.865194-5.832717 3.78615 0.306985-1.739582 0.920955-3.990806 1.739582-6.753672 11.051464-34.177676-2.967523-77.462576-32.02878-98.54222-2.353553-1.637254-4.093135-3.172179-5.423404-4.40012 1.841911-0.204657 4.093135-0.409313 6.958329-0.409313 35.917258 0 72.755471-26.707705 83.806935-60.88538 0.920955-2.762866 1.739582-4.809433 2.558209-6.446687 0.818627 1.637254 1.637254 3.78615 2.558209 6.446687 11.051464 34.177676 47.889677 60.88538 83.806935 60.88538 2.865194 0 5.116419 0.204657 6.958329 0.409313C614.430699 289.486959 612.691116 291.021885 610.337564 292.659139z" p-id="2311"></path></svg>